<svg xmlns="http://www.w3.org/2000/svg" viewBox="0 0 1246.61 684.04"><defs><style>.cls-1{fill:#1d1d1b;}</style></defs><g id="Warstwa_2" data-name="Warstwa 2"><g id="Layer_1" data-name="Layer 1"><path class="cls-1" d="M175.84,183.21q51.6,0,80.82,27.5t29.21,70V470.21q0,11.35,11.92,11.34h12.47V494.6H240.5a11.57,11.57,0,0,1-8.79-4,12.91,12.91,0,0,1-3.7-9.08V259.78q0-26.08-17-42.54t-50.48-16.45A69.17,69.17,0,0,0,131.88,207a80.26,80.26,0,0,0-24.11,16.45q-10.22,10.2-15.6,16.45a106.31,106.31,0,0,0-9.35,12.47V470.21a10.21,10.21,0,0,0,3.68,8.23,13.16,13.16,0,0,0,8.79,3.11H107.2V494.6H0V481.55H13q11.36,0,11.35-11.34V26.66q0-8.52-7.94-8.51H0V5.67Q64.1,0,70.9,0,82.82,0,82.82,11.34V231.42Q122.5,183.21,175.84,183.21Z"/><path class="cls-1" d="M471.69,183.21q60.12,0,97.27,30.06t37.16,81.67V470.21q0,11.35,11.91,11.34h12.48V494.6H560.74a13.43,13.43,0,0,1-9.36-4,12.13,12.13,0,0,1-4.26-9.08V453.76Q508,500.28,451.84,500.27q-53.32,0-88.2-28.93t-34.89-81.11q0-48.19,34.6-78.84t88.49-30.63q53.87,0,95.28,36.31V277.36q0-35.16-24.38-57.57t-64.09-22.41a132.13,132.13,0,0,0-59.28,14.19q-28.65,14.18-42.26,28.36L343.5,254.1l-9.07-7.94a84.2,84.2,0,0,1,6.24-6.8q4-4,17.29-15A184.48,184.48,0,0,1,386,205q14.74-8.22,38-15A168.73,168.73,0,0,1,471.69,183.21Zm75.43,151.44q-35.72-37.44-80.54-37.44-33.46,0-56.72,25.81t-23.25,67.21q0,50.49,24.11,71.75t57,21.28q43.09,0,79.4-51.05Z"/><path class="cls-1" d="M817.47,183.21q51.6,0,80.82,27.5t29.21,70V470.21q0,11.35,11.92,11.34h12.47V494.6H882.13a11.57,11.57,0,0,1-8.79-4,12.91,12.91,0,0,1-3.7-9.08V259.78q0-26.08-17-42.54t-50.48-16.45A69.17,69.17,0,0,0,773.51,207a80.26,80.26,0,0,0-24.11,16.45q-10.21,10.2-15.6,16.45a106.31,106.31,0,0,0-9.35,12.47V470.21a10.21,10.21,0,0,0,3.68,8.23,13.16,13.16,0,0,0,8.79,3.11h11.91V494.6H641.63V481.55h13q11.36,0,11.35-11.34V209.87q0-8-7.94-8H641.63v-13q64.1-5.67,70.9-5.67a11.64,11.64,0,0,1,11.92,11.9v36.31Q764.13,183.21,817.47,183.21Z"/><path class="cls-1" d="M1230.16,122a14.25,14.25,0,0,1,9.07,3.12,10,10,0,0,1,4,8.22l-5.67,47.65h-11.92V163.35q0-9.06-9.07-9.07-26.08,0-44.8,40.83,60.11,23.83,60.12,85.65,0,34.61-19.57,57.29a102.14,102.14,0,0,1-47.65,31.48q-28.07,8.81-63.25,8.79-59.55,0-94.71-24.95-15.32,12.48-15.32,29.49,0,22.13,23.82,40t86.21,34.31q83.94,22.69,114.58,52.47t30.63,71.19q0,44.23-38,73.73T1101.4,684q-62.94,0-102.94-22.4t-40-62.67A63.58,63.58,0,0,1,965,570q6.51-13,15.88-19.85a132.81,132.81,0,0,1,19-11.63,90.13,90.13,0,0,1,15.88-6.52l6.81-1.71,9.07,9.65-4.25,1.41q-2.55.86-9.64,5.39A66.44,66.44,0,0,0,1005.27,557q-5.4,5.67-9.65,16.45a62.85,62.85,0,0,0-4.25,23.26q0,35.73,32,55.58t78,19.85q49.92,0,78.57-21T1208.61,599q0-30.08-23.82-51.05t-83.39-36.87q-74.87-20.43-106.06-45.66T964.14,405q0-35.73,32.34-59.55-26.1-25-26.1-64.67,0-34.59,20.42-57.57t48.5-31.48q28.08-8.51,62.1-8.5,33.46,0,59.57,7.94Q1184.79,122,1230.16,122Zm-78.27,93q-21.57-19.84-50.49-19.86t-51,19.86q-22.12,19.86-22.12,65.79t22.12,65.51q22.11,19.58,51,19.58t50.49-19.58q21.54-19.56,21.55-65.51T1151.89,215Z"/></g></g></svg>